<?xml version="1.0" encoding="utf-8"?>
<svg x="0px" y="0px" viewBox="0 0 512 512" xmlns="http://www.w3.org/2000/svg">
  <ellipse style="fill: rgb(255, 0, 0);" cx="256" cy="256" rx="256" ry="256"/>
  <path d="M 366.6 230.83 C 380.504 230.83 391.784 242.079 391.784 255.999 C 391.784 269.919 380.504 281.167 366.6 281.167 L 144.92 281.167 L 144.92 230.83 M 145.384 281.167 C 131.496 281.167 120.216 269.919 120.216 255.999 C 120.216 242.079 131.496 230.83 145.384 230.83" style="paint-order: fill; fill: rgb(255, 255, 255);" transform="matrix(0.707108, -0.707106, 0.707106, 0.707108, -106.037609, 255.999056)"/>
  <path d="M 366.6 230.83 C 380.504 230.83 391.784 242.078 391.784 255.998 C 391.784 269.918 380.504 281.166 366.6 281.166 L 144.92 281.166 L 144.92 230.83 M 145.384 281.166 C 131.496 281.166 120.216 269.918 120.216 255.998 C 120.216 242.078 131.496 230.83 145.384 230.83" style="paint-order: fill; fill: rgb(255, 255, 255);" transform="matrix(0.707107, 0.707107, -0.707107, 0.707107, 255.998581, -106.03926)"/>
</svg>