<?xml version="1.0" encoding="utf-8"?>
<svg viewBox="0 0 512 512" xmlns="http://www.w3.org/2000/svg">
  <ellipse style="fill: rgb(84, 180, 246);" cx="256" cy="256" rx="256" ry="256"/>
  <path d="M 409.615 88.06 C 420.018 88.06 430 96.137 430 108.34 L 430 217.762 C 430 225.705 423.562 232.139 415.623 232.139 L 306.35 232.139 C 294.14 232.139 286.056 222.15 286.056 211.74 C 286.056 206.764 287.901 201.69 292.025 197.565 L 325.865 163.711 C 304.7 146.356 277.978 136.231 249.891 136.231 C 183.825 136.231 130.044 189.998 130.044 256.079 C 130.044 322.16 183.795 375.896 249.869 375.896 C 304.723 375.896 316.947 347.164 336.192 347.164 C 350.052 347.164 360.169 358.444 360.169 371.134 C 360.169 397.413 298.978 423.94 249.921 423.94 C 157.373 423.94 82 348.567 82 256.019 C 82 163.471 157.396 88.307 249.944 88.307 C 290.893 88.307 329.592 103.6 359.741 129.752 L 395.441 94.03 C 399.566 89.905 404.665 88.06 409.615 88.06 Z" style="fill: rgb(255, 255, 255);"/>
</svg>